<?xml version="1.0" standalone="no"?><!DOCTYPE svg PUBLIC "-//W3C//DTD SVG 1.1//EN" "http://www.w3.org/Graphics/SVG/1.1/DTD/svg11.dtd"><svg t="1697441358254" class="icon" viewBox="0 0 1024 1024" version="1.1" xmlns="http://www.w3.org/2000/svg" p-id="3115" xmlns:xlink="http://www.w3.org/1999/xlink" width="200" height="200"><path d="M80.158765 929.54061c-4.139655 0-7.526645-3.38699-7.526644-7.526645v-290.528482c0-4.139655 3.38699-7.526645 7.526644-7.526644s7.526645 3.38699 7.526645 7.526644V922.013965c0 4.139655-3.38699 7.526645-7.526645 7.526645z" fill="#2c2c2c" p-id="3116"></path><path d="M929.916942 642.77545H83.922087c-6.021316 0-11.289967-5.268651-11.289966-11.289967v-121.55531c0-6.397648 4.892319-11.289967 11.289966-11.289967h845.994855c6.397648 0 11.289967 4.892319 11.289967 11.289967v121.55531c0 6.021316-5.268651 11.289967-11.289967 11.289967z m-842.231532-15.053289h838.46821v-114.028666H87.68541v114.028666z" fill="#2c2c2c" p-id="3117"></path><path d="M929.916942 929.54061c-4.139655 0-7.526645-3.38699-7.526644-7.526645v-286.765159c0-4.139655 3.38699-7.526645 7.526644-7.526645s7.526645 3.38699 7.526645 7.526645V922.013965c0 4.139655-3.38699 7.526645-7.526645 7.526645zM228.809996 503.156193H137.361264c-6.397648 0-11.289967-4.892319-11.289967-11.289967V235.207644c0-6.021316 5.268651-11.289967 11.289967-11.289967h91.448732c6.397648 0 11.289967 4.892319 11.289967 11.289967v256.658582c0 6.021316-5.268651 11.289967-11.289967 11.289967z m-87.685409-15.05329h83.922087V238.970967H141.124587v249.131936zM810.995957 417.728776H327.785373c-6.397648 0-11.289967-4.892319-11.289967-11.289967V168.596839c0-6.397648 4.892319-11.289967 11.289967-11.289967h482.834252c6.397648 0 11.289967 4.892319 11.289967 11.289967v237.465638c0.376332 2.634326-0.752664 5.644983-2.257993 7.526645-2.257993 2.634326-5.268651 4.139655-8.655642 4.139654z m-479.447262-15.053289h475.307608V172.360162H331.548695V402.675487z" fill="#2c2c2c" p-id="3118"></path><path d="M575.788313 460.254318c-4.139655 0-7.526645-3.38699-7.526644-7.526644V410.202132c0-4.139655 3.38699-7.526645 7.526644-7.526645s7.526645 3.38699 7.526645 7.526645v42.525542c0 4.139655-3.38699 7.526645-7.526645 7.526644z" fill="#2c2c2c" p-id="3119"></path><path d="M695.08563 509.930173h-242.357956c-6.397648 0-11.289967-4.892319-11.289967-11.289967v-36.504227c0-6.397648 4.892319-11.289967 11.289967-11.289967h242.357956c6.397648 0 11.289967 4.892319 11.289967 11.289967v36.504227c0 6.021316-5.268651 11.289967-11.289967 11.289967z m-238.594634-15.05329h234.831312v-28.977581h-234.831312v28.977581zM181.392135 460.254318c-7.150312 0-12.795296-5.644983-12.795296-12.795296s5.644983-12.795296 12.795296-12.795295 12.795296 5.644983 12.795296 12.795295-5.644983 12.795296-12.795296 12.795296z m0-15.053289c-1.128997 0-2.257993 1.128997-2.257993 2.257993s1.128997 2.257993 2.257993 2.257994 2.257993-1.128997 2.257994-2.257994-1.128997-2.257993-2.257994-2.257993z" fill="#2c2c2c" p-id="3120"></path><path d="M787.287027 381.22455m-7.150313 0a7.150312 7.150312 0 1 0 14.300625 0 7.150312 7.150312 0 1 0-14.300625 0Z" fill="#2c2c2c" p-id="3121"></path></svg>