<?xml version="1.0" standalone="no"?><!DOCTYPE svg PUBLIC "-//W3C//DTD SVG 1.1//EN" "http://www.w3.org/Graphics/SVG/1.1/DTD/svg11.dtd"><svg t="1719150614291" class="icon" viewBox="0 0 1024 1024" version="1.1" xmlns="http://www.w3.org/2000/svg" p-id="8433" xmlns:xlink="http://www.w3.org/1999/xlink" width="200" height="200"><path d="M950.784 812.544L567.296 147.968c-24.576-42.496-86.016-42.496-110.08 0l-384 664.576c-24.576 42.496 6.144 95.744 55.296 95.744h766.976c49.152-0.512 79.872-53.248 55.296-95.744zM482.816 391.68c0-16.384 13.312-29.184 29.184-29.184 16.384 0 29.184 13.312 29.184 29.184v297.984c0 16.384-13.312 29.184-29.184 29.184-16.384 0-29.184-13.312-29.184-29.184V391.68z m29.184 420.352c-16.384 0-30.208-13.312-30.208-30.208 0-16.384 13.312-30.208 30.208-30.208 16.384 0 30.208 13.312 30.208 30.208 0 16.896-13.824 30.208-30.208 30.208z" fill="#2c2c2c" p-id="8434"></path></svg>